<?xml version="1.0" encoding="UTF-8"?>
<svg version="1.1" xmlns="http://www.w3.org/2000/svg" width="1024" height="1024">
<path d="M0 0 C337.92 0 675.84 0 1024 0 C1024 337.92 1024 675.84 1024 1024 C686.08 1024 348.16 1024 0 1024 C0 686.08 0 348.16 0 0 Z " fill="#121C2D" transform="translate(0,0)"/>
<path d="M0 0 C1.98146817 0.55074629 3.96777403 1.07996246 5.95581055 1.60644531 C25.52507325 6.8741295 25.52507325 6.8741295 30.92260742 14.80175781 C33.63083358 22.9264363 30.56871204 29.90593448 27.96948242 37.71191406 C27.55282189 38.98817314 27.13712231 40.2647463 26.72232056 41.54161072 C25.84087089 44.24868436 24.95325573 46.95362114 24.06048584 49.65698242 C22.66298314 53.88887264 21.27893067 58.12507798 19.89770508 62.36230469 C19.43596945 63.77835926 18.97420802 65.19440542 18.51242065 66.61044312 C18.17095819 67.65753511 18.17095819 67.65753511 17.8225975 68.72578049 C17.13427459 70.83467849 16.4445603 72.94311657 15.75442505 75.05142212 C12.43712033 85.1893202 9.19160967 95.34812828 6.00830078 105.52890015 C2.50261805 116.74037098 -1.08020639 127.91809849 -4.82739258 139.05175781 C-15.07131451 169.4895201 -24.6060752 200.1671472 -34.33709717 230.771698 C-42.48793974 256.40334801 -50.78468631 281.98564491 -59.13937378 307.55148315 C-64.33566405 323.45333469 -69.51289385 339.36076883 -74.62768555 355.2890625 C-75.70352693 358.63909329 -76.78100851 361.98859321 -77.85913086 365.33789062 C-86.93697113 393.54117314 -95.93746532 421.76785182 -104.8371582 450.02783203 C-108.34214348 461.15608393 -111.85703527 472.28103736 -115.40551758 483.39550781 C-115.7278688 484.40736145 -116.05022003 485.41921509 -116.38233948 486.46173096 C-124.60022115 512.1503102 -124.60022115 512.1503102 -133.07739258 517.80175781 C-140.48883483 518.52482535 -147.15215787 516.48478056 -154.26489258 514.55175781 C-155.40764648 514.25140625 -156.55040039 513.95105469 -157.7277832 513.64160156 C-163.5913291 512.08373465 -169.42846328 510.43973443 -175.24536133 508.71582031 C-176.29103271 508.40596191 -177.3367041 508.09610352 -178.4140625 507.77685547 C-183.20339467 506.02338653 -185.18021927 503.117612 -187.95239258 499.05175781 C-190.99540805 490.26082424 -186.26134214 480.31786527 -183.51489258 471.86425781 C-183.00028894 470.25865772 -182.48632148 468.65285363 -181.97290039 467.046875 C-180.02216429 460.96048469 -178.04923469 454.8813361 -176.07739258 448.80175781 C-175.42198598 446.77885849 -174.76678428 444.75589288 -174.11160278 442.73292065 C-169.79806163 429.41443549 -165.47994032 416.09743927 -161.15405273 402.78295898 C-155.19096593 384.4273908 -149.25673898 366.06337053 -143.38989258 347.67675781 C-138.8252485 333.37198652 -134.2316638 319.07763099 -129.57739258 304.80175781 C-122.88286644 284.26783036 -116.30972328 263.69543075 -109.73718262 243.12219238 C-107.35904396 235.67931104 -104.9721139 228.23932216 -102.57739258 220.80175781 C-98.2175092 207.25588349 -93.88354804 193.70173145 -89.54870605 180.14782715 C-85.60118188 167.80513263 -81.64971472 155.46372883 -77.68676758 143.12597656 C-76.59512997 139.72692619 -75.50351528 136.32786847 -74.41192627 132.92880249 C-73.68913225 130.6781507 -72.96627259 128.42751999 -72.24334717 126.1769104 C-67.93467918 112.76004708 -63.65835978 99.33387497 -59.43655396 85.88943481 C-55.09524467 72.06607229 -50.65518953 58.28131983 -46.02050781 44.55322266 C-45.57330309 43.22852254 -45.12611864 41.90381557 -44.67895508 40.57910156 C-44.35167168 39.61006897 -44.35167168 39.61006897 -44.01777649 38.62145996 C-42.70966186 34.7322314 -41.44151279 30.83258166 -40.20802307 26.91905212 C-39.61172511 25.02772082 -39.00807776 23.13871166 -38.40429688 21.24975586 C-37.67077235 18.94953485 -36.94985023 16.64523725 -36.24462891 14.33618164 C-34.04374743 7.49801656 -31.53178165 1.49117887 -25.15991211 -2.35595703 C-17.17783401 -5.58434735 -7.87440969 -2.19334207 0 0 Z " fill="#F9F9F9" transform="translate(611.077392578125,256.1982421875)"/>
<path d="M0 0 C0.928125 -0.01160156 0.928125 -0.01160156 1.875 -0.0234375 C8.6684025 1.25032547 13.03924637 5.93323628 17.734375 10.60546875 C18.45361145 11.31472 19.1728479 12.02397125 19.91387939 12.75471497 C21.42715001 14.25284383 22.9364174 15.75502595 24.44189453 17.26098633 C26.74088866 19.55341468 29.06279475 21.82077365 31.38671875 24.08789062 C32.85823857 25.55060824 34.32833946 27.01475501 35.796875 28.48046875 C36.48956482 29.15160202 37.18225464 29.82273529 37.89593506 30.51420593 C42.27797286 34.95932509 44.10093086 38.16313661 45 44.375 C44.60938746 47.37604757 43.58678435 49.79880893 42 52.375 C39.9375 53.625 39.9375 53.625 38 54.375 C37.75121094 54.92671875 37.50242187 55.4784375 37.24609375 56.046875 C35.46167431 59.38077464 32.81366479 61.7701545 30.125 64.375 C29.59519531 64.89578125 29.06539062 65.4165625 28.51953125 65.953125 C27.48791449 66.96682286 26.45318599 67.97736585 25.41503906 68.984375 C24.16445515 70.21338224 22.95028163 71.47920202 21.7421875 72.75 C20 74.375 20 74.375 18 74.375 C18 75.035 18 75.695 18 76.375 C16.56640625 77.78515625 16.56640625 77.78515625 14.5625 79.4375 C9.77749405 83.50136144 5.4023405 87.90506119 1 92.375 C0.0925 93.261875 -0.815 94.14875 -1.75 95.0625 C-4.33460152 97.718896 -6.63954684 100.51760933 -9 103.375 C-10.6875 105.25 -10.6875 105.25 -12 106.375 C-12.66 106.375 -13.32 106.375 -14 106.375 C-14 107.035 -14 107.695 -14 108.375 C-15.57421875 109.890625 -15.57421875 109.890625 -17.6875 111.625 C-21.25336394 114.650962 -24.07511247 117.73865334 -27 121.375 C-28.6549877 123.05326436 -30.3228351 124.71889812 -32 126.375 C-33.52572941 127.90982224 -35.05069395 129.44540515 -36.57495117 130.98168945 C-40.88525995 135.32383135 -45.19984153 139.66168101 -49.51769543 143.99631977 C-52.1227585 146.61187892 -54.72589136 149.22930438 -57.32495117 151.85083008 C-59.84859519 154.39613678 -62.37703448 156.93658624 -64.90892982 159.47368431 C-65.87197421 160.44042899 -66.83325421 161.40893457 -67.79274559 162.3792057 C-69.12827357 163.72916542 -70.47058648 165.07240268 -71.81323242 166.4152832 C-72.57536545 167.18185745 -73.33749847 167.9484317 -74.12272644 168.73823547 C-76 170.375 -76 170.375 -78 170.375 C-73.26477842 175.91774374 -68.33348151 181.18601923 -63.17211914 186.33227539 C-62.42316879 187.08297806 -61.67421844 187.83368073 -60.90257263 188.60713196 C-58.44926022 191.06481187 -55.9923479 193.51885527 -53.53515625 195.97265625 C-51.81540069 197.69308631 -50.09579353 199.41366472 -48.37632751 201.13438416 C-44.78123503 204.7309467 -41.18435104 208.32570528 -37.58618164 211.91918945 C-32.98873131 216.51094294 -28.39578536 221.1071716 -23.80417728 225.70476627 C-20.25683212 229.25573571 -16.70709535 232.80430666 -13.15664482 236.35217094 C-11.46273975 238.04541191 -9.76956897 239.73938779 -8.0771656 241.43412971 C-5.7062893 243.80756325 -3.33220041 246.17773776 -0.95727539 248.54711914 C0.07712173 249.58455261 0.07712173 249.58455261 1.13241577 250.64294434 C5.0364656 254.53024282 9.04254426 258.23920589 13.22314167 261.82807827 C15.9561628 264.20742935 18.53681477 266.73086611 21.109375 269.28125 C21.64346985 269.80964478 22.1775647 270.33803955 22.72784424 270.88244629 C23.8415689 271.98683112 24.95392997 273.09259274 26.06494141 274.19970703 C27.75371337 275.87869185 29.45287668 277.54669424 31.15234375 279.21484375 C32.24284413 280.29881898 33.33271027 281.38343273 34.421875 282.46875 C34.92297791 282.9575061 35.42408081 283.44626221 35.94036865 283.9498291 C39.86334634 287.89762417 43.32619041 292.27844856 44.53125 297.81640625 C44.5209375 298.51636719 44.510625 299.21632813 44.5 299.9375 C44.5103125 300.64003906 44.520625 301.34257813 44.53125 302.06640625 C43.08721129 308.34160389 37.6565734 313.0257082 33.2578125 317.41796875 C32.61182098 318.06824539 31.96582947 318.71852203 31.30026245 319.38850403 C29.93953494 320.75494854 28.57621435 322.11881521 27.21044922 323.48022461 C25.1296725 325.55783461 23.06259488 327.64843617 20.99609375 329.74023438 C19.66747792 331.07112286 18.3380768 332.40122796 17.0078125 333.73046875 C16.39511505 334.35237595 15.7824176 334.97428314 15.15115356 335.61503601 C11.24523734 339.47952392 7.45582602 342.72703262 1.875 343.7734375 C1.25625 343.76570313 0.6375 343.75796875 0 343.75 C-0.61875 343.75773437 -1.2375 343.76546875 -1.875 343.7734375 C-8.29078478 342.57047785 -12.38938291 338.41173227 -16.7822876 333.96020508 C-17.43937139 333.30639012 -18.09645519 332.65257517 -18.77345061 331.97894764 C-20.96845813 329.79120999 -23.15259489 327.59293672 -25.33691406 325.39453125 C-26.91025195 323.82198437 -28.48424313 322.25009086 -30.05883789 320.67880249 C-34.32978779 316.41298513 -38.59134589 312.13789658 -42.85115528 307.8609581 C-47.30810976 303.38896844 -51.77316767 298.92508378 -56.23724365 294.46020508 C-63.73057577 286.963181 -71.21829643 279.46058641 -78.70214844 271.95410156 C-86.40307928 264.22989833 -94.10855446 256.51026844 -101.81933594 248.79589844 C-102.29454808 248.32046353 -102.76976023 247.84502861 -103.25937274 247.35518658 C-104.21670052 246.3974162 -105.17402858 245.43964611 -106.13135694 244.48187631 C-106.60359513 244.00941856 -107.07583331 243.53696081 -107.56238174 243.05018616 C-108.03342776 242.57892416 -108.50447377 242.10766215 -108.98979391 241.62211949 C-116.78258553 233.82540438 -124.57098727 226.02430483 -132.35920238 218.22301865 C-135.01924449 215.55887493 -137.67987513 212.89532003 -140.3405838 210.23184204 C-144.515962 206.05157629 -148.68867562 201.86866839 -152.85931396 197.68367386 C-154.39276959 196.14568989 -155.9270736 194.6085513 -157.46227264 193.07230759 C-159.5523942 190.98044417 -161.6394221 188.88554348 -163.72564697 186.78979492 C-164.64459696 185.87214466 -164.64459696 185.87214466 -165.5821116 184.935956 C-172.28866037 178.18320984 -172.28866037 178.18320984 -172.375 172.5625 C-172.40335938 171.73105469 -172.43171875 170.89960938 -172.4609375 170.04296875 C-171.36109667 163.67694091 -165.96789923 159.05439959 -161.56106567 154.67536926 C-160.9166801 154.02715814 -160.27229452 153.37894701 -159.60838211 152.71109313 C-157.45605185 150.54847511 -155.29667381 148.39303899 -153.13720703 146.23754883 C-151.58931414 144.68530721 -150.04183926 143.13264865 -148.49475098 141.5796051 C-144.29701845 137.36849064 -140.09291132 133.16379576 -135.88721704 128.96063447 C-132.37632734 125.45081473 -128.86841923 121.9380225 -125.36046112 118.42527312 C-116.61299392 109.6660802 -107.85924789 100.91318829 -99.10270296 92.16307177 C-91.50206047 84.56760082 -83.90966868 76.96394323 -76.32112028 69.35639087 C-68.52280575 61.53869737 -60.71879967 53.72672722 -52.90905654 45.92045039 C-48.52702522 41.54023315 -44.14725545 37.15781307 -39.7730751 32.76975441 C-35.66100945 28.64513055 -31.54177635 24.52780262 -27.41690063 20.41599083 C-25.90421661 18.90567625 -24.39408853 17.39279672 -22.88671494 15.87718201 C-20.82897271 13.80900263 -18.76220529 11.75028205 -16.69290161 9.69367981 C-16.09833731 9.09174122 -15.50377301 8.48980263 -14.8911916 7.86962348 C-10.69649837 3.72892492 -6.21394091 -0.07767426 0 0 Z " fill="#F9F9F9" transform="translate(353,340.625)"/>
<path d="M0 0 C1.06734375 -0.01160156 1.06734375 -0.01160156 2.15625 -0.0234375 C8.66173878 1.08249559 12.79298371 5.23571903 17.2375946 9.72491455 C17.88988928 10.37182369 18.54218396 11.01873283 19.21424514 11.68524528 C21.39309305 13.84981201 23.561095 16.02492001 25.72924805 18.20019531 C27.29113472 19.75637856 28.85365071 21.31193039 30.41674805 22.86689758 C34.65707672 27.08927751 38.88778474 31.3211745 43.11629462 35.55538654 C46.64740246 39.08958354 50.18308824 42.61918262 53.71875983 46.14881301 C62.53616355 54.95136447 71.34430543 63.76313169 80.14823679 72.57915327 C87.78953051 80.23037986 95.44220177 87.87010794 103.10041454 95.50439683 C110.96976121 103.34934553 118.83148433 111.20186903 126.68551666 119.06215167 C131.09265197 123.47265934 135.50264183 127.88021248 139.92004967 132.28043365 C144.0732206 136.41814995 148.21658598 140.56544057 152.35260773 144.72029686 C153.87172658 146.24310553 155.39426074 147.76251597 156.92044258 149.27824593 C159.00413766 151.34875757 161.07510692 153.43122659 163.14335632 155.51715088 C164.05210063 156.41148767 164.05210063 156.41148767 164.9792034 157.32389188 C169.69636874 162.12430285 172.45203863 166.35343392 172.5625 173.3125 C171.20623829 180.96148416 164.22618022 186.94339292 158.92098999 192.20797729 C158.28573509 192.84635218 157.65048019 193.48472706 156.99597514 194.14244664 C154.88662553 196.25971226 152.77027373 198.36982956 150.65380859 200.47998047 C149.13192533 202.00457632 147.61046732 203.52959677 146.08940125 205.05500793 C141.97238233 209.18111805 137.84909435 213.30090886 133.72435331 217.4192977 C129.40573498 221.73284281 125.09200937 226.05127642 120.77749634 230.368927 C113.53657271 237.61348485 106.29145166 244.85382485 99.04394531 252.09179688 C90.66155563 260.46328664 82.28641737 268.84197921 73.91497743 277.22441757 C66.72447678 284.42398698 59.53009502 291.61966064 52.33244002 298.81207764 C48.0345161 303.10688172 43.73795933 307.40303005 39.4448967 311.70269394 C35.41273268 315.74062534 31.37572655 319.77365171 27.33489418 323.80290794 C25.85127162 325.28388139 24.36935692 326.76656797 22.88926125 328.25106621 C20.87243562 330.27333822 18.84958122 332.28937843 16.82504272 334.30392456 C16.23768982 334.89573891 15.65033692 335.48755325 15.04518545 336.09730136 C10.38552152 340.71230729 7.36496434 342.6719753 0.8125 342.9375 C-0.64736328 343.03224609 -0.64736328 343.03224609 -2.13671875 343.12890625 C-11.49628544 341.03088491 -19.04532635 331.17156842 -25.64038086 324.55029297 C-27.3182713 322.86921775 -29.00915181 321.20199526 -30.70117188 319.53515625 C-31.78726801 318.4513316 -32.87258242 317.3667229 -33.95703125 316.28125 C-34.4549971 315.7924939 -34.95296295 315.30373779 -35.46601868 314.8001709 C-39.28704302 310.92863296 -42.95094927 306.48970834 -43.91796875 301.00390625 C-42.70028481 290.08602819 -31.95907931 282.70227662 -24.54760742 275.34082031 C-23.45600533 274.25278139 -22.36464239 273.16450249 -21.27349854 272.07600403 C-18.9384789 269.74749465 -16.60195833 267.42050596 -14.26427269 265.09467316 C-10.56760995 261.416407 -6.87538712 257.73370553 -3.18391418 254.05023193 C7.3084437 243.58195182 17.80677952 233.11967865 28.30932617 222.66162109 C34.12117874 216.87430972 39.92943695 211.08341503 45.73385733 205.28864932 C49.40302672 201.62601952 53.0766552 197.96794051 56.75365317 194.31317091 C59.03604073 192.04250498 61.3142439 189.767677 63.59127808 187.49164391 C64.64813324 186.43693743 65.70671181 185.38395465 66.76712608 184.33282661 C68.21355929 182.89857347 69.65326281 181.45754293 71.09260559 180.01617432 C71.90022244 179.21169987 72.7078393 178.40722542 73.53992939 177.57837296 C75.3336697 175.56197678 76.45369497 173.84430482 77.5 171.375 C71.0622915 164.05485072 64.33146329 157.08216604 57.41235352 150.22143555 C56.33029767 149.14458748 55.24849252 148.06748747 54.16691589 146.99015808 C51.85863516 144.69172983 49.54888468 142.39479291 47.2380085 140.09897423 C43.58272419 136.46695137 39.93249124 132.82987973 36.28318787 129.19184875 C25.91294351 118.85488341 15.5383679 108.5222913 5.15356445 98.19995117 C-0.59791822 92.4829786 -6.34403751 86.76067234 -12.08423096 81.03236419 C-15.70973722 77.41494832 -19.34171129 73.80419613 -22.97858703 70.19821298 C-25.23528062 67.9575201 -27.48565523 65.71056453 -29.73426628 63.46176338 C-30.7773461 62.42110537 -31.82300471 61.38302477 -32.871418 60.34774017 C-34.30253992 58.93379767 -35.72354976 57.50964202 -37.14402771 56.08500671 C-37.94167258 55.29142604 -38.73931746 54.49784536 -39.56113338 53.68021679 C-42.03841759 50.73484804 -43.35619929 48.04368741 -43.6875 44.19921875 C-42.69468094 32.88521827 -32.88993473 25.42063301 -25.26855469 17.82788086 C-23.49520364 16.05771225 -21.73566816 14.27454703 -19.9765625 12.49023438 C-18.8393524 11.35075281 -17.70135832 10.212053 -16.5625 9.07421875 C-16.04357178 8.54608078 -15.52464355 8.01794281 -14.98999023 7.47380066 C-10.677522 3.21497808 -6.24036774 -0.06783008 0 0 Z " fill="#F9F9F9" transform="translate(671.5,340.625)"/>
<path d="M0 0 C0 3 0 3 -1.35546875 4.6484375 C-1.96003906 5.21820313 -2.56460937 5.78796875 -3.1875 6.375 C-3.826875 6.98472656 -4.46625 7.59445312 -5.125 8.22265625 C-5.74375 8.80917969 -6.3625 9.39570313 -7 10 C-7.886875 10.928125 -8.77375 11.85625 -9.6875 12.8125 C-11.7945294 14.80563592 -13.41629122 15.79789549 -16 17 C-11.01595832 10.96668638 -5.58084697 5.4815829 0 0 Z " fill="#060B16" transform="translate(321,466)"/>
<path d="M0 0 C-1.44781793 3.44428265 -3.27694609 5.36130962 -6.125 7.75 C-7.21167969 8.67039062 -7.21167969 8.67039062 -8.3203125 9.609375 C-8.87460937 10.06828125 -9.42890625 10.5271875 -10 11 C-10.66 10.67 -11.32 10.34 -12 10 C-10.38113585 8.32737283 -8.7547271 6.66204463 -7.125 5 C-6.22007812 4.071875 -5.31515625 3.14375 -4.3828125 2.1875 C-2 0 -2 0 0 0 Z " fill="#1D222C" transform="translate(383,662)"/>
<path d="M0 0 C0.33 0.99 0.66 1.98 1 3 C-1.64 5.31 -4.28 7.62 -7 10 C-7.66 9.67 -8.32 9.34 -9 9 C-6.03 6.03 -3.06 3.06 0 0 Z " fill="#080D18" transform="translate(299,488)"/>
<path d="M0 0 C0.66 0.33 1.32 0.66 2 1 C-1.16952847 4.26008643 -4.39937989 7.22237877 -8 10 C-6.34908222 5.70761377 -3.26245434 3.1206085 0 0 Z " fill="#EFF1F2" transform="translate(640,365)"/>
</svg>
